<?xml version="1.0" encoding="UTF-8"?>
<svg width="40px" height="40px" viewBox="0 0 40 40" version="1.1" xmlns="http://www.w3.org/2000/svg" xmlns:xlink="http://www.w3.org/1999/xlink">
    <title>close_sidebar_bg</title>
    <g id="close_sidebar_bg" stroke="none" stroke-width="1" fill="none" fill-rule="evenodd">
        <g id="TitleBar/item/right/icon备份-2" fill="#000000">
            <circle id="椭圆形" fill-opacity="0.0509803922" cx="20" cy="20" r="20"></circle>
            <g id="close_sidebar" transform="translate(8.000000, 8.000000)" fill-rule="nonzero">
                <g id="group" opacity="0">
                    <rect id="矩形" x="0" y="0" width="24" height="24"></rect>
                </g>
                <g id="group0" transform="translate(2.000000, 4.000000)" fill-opacity="0.90196079">
                    <g id="layers">
                        <path d="M19.6,8.17 C19.7733333,8.04333333 19.86,7.87333333 19.86,7.66 C19.86,7.45333333 19.7733333,7.28666667 19.6,7.16 L16.58,4.86 C16.4466667,4.76 16.3,4.72 16.14,4.74 C15.98,4.75333333 15.8466667,4.81666667 15.74,4.93 C15.6266667,5.04333333 15.57,5.18666667 15.57,5.36 L15.57,9.97 C15.57,10.1433333 15.6266667,10.2866667 15.74,10.4 C15.8466667,10.5133333 15.98,10.5766667 16.14,10.59 C16.3,10.61 16.4466667,10.57 16.58,10.47 L19.6,8.17 Z" id="路径"></path>
                        <path d="M19.24,2.02 C19.4466667,2.02 19.6233333,1.95 19.77,1.81 C19.91,1.66333333 19.98,1.48666667 19.98,1.28 C19.98,1.07333333 19.91,0.896666667 19.77,0.75 C19.6233333,0.61 19.4466667,0.54 19.24,0.54 L0.76,0.54 C0.553333333,0.54 0.376666667,0.61 0.23,0.75 C0.09,0.896666667 0.02,1.07333333 0.02,1.28 C0.02,1.48666667 0.09,1.66333333 0.23,1.81 C0.376666667,1.95 0.553333333,2.02 0.76,2.02 L19.24,2.02 Z M12.26,8.72 C12.4666667,8.72 12.64,8.64333333 12.78,8.49 C12.9266667,8.33666667 13,8.15666667 13,7.95 C13,7.74333333 12.9266667,7.56666667 12.78,7.42 C12.64,7.28 12.4666667,7.21 12.26,7.21 L0.76,7.21 C0.553333333,7.21 0.376666667,7.28 0.23,7.42 C0.09,7.56666667 0.02,7.74333333 0.02,7.95 C0.02,8.15666667 0.09,8.33666667 0.23,8.49 C0.376666667,8.64333333 0.553333333,8.72 0.76,8.72 L12.26,8.72 Z M19.24,15.46 C19.4466667,15.46 19.6233333,15.39 19.77,15.25 C19.91,15.1033333 19.98,14.9266667 19.98,14.72 C19.98,14.5133333 19.91,14.3333333 19.77,14.18 C19.6233333,14.0266667 19.4466667,13.95 19.24,13.95 L0.76,13.95 C0.553333333,13.95 0.376666667,14.0266667 0.23,14.18 C0.09,14.3333333 0.02,14.5133333 0.02,14.72 C0.02,14.9266667 0.09,15.1033333 0.23,15.25 C0.376666667,15.39 0.553333333,15.46 0.76,15.46 L19.24,15.46 Z" id="形状"></path>
                    </g>
                </g>
            </g>
        </g>
    </g>
</svg>