<svg width="40.000000" height="40.000000" viewBox="0 0 40 40" fill="none" xmlns="http://www.w3.org/2000/svg" xmlns:xlink="http://www.w3.org/1999/xlink">
	<desc>
			Created with Pixso.
	</desc>
	<defs/>
	<rect id="3.Icon Button" rx="20.000000" width="40.000000" height="40.000000" fill="#000000" fill-opacity="0.050980"/>
	<rect id=".Drawer-Close" width="24.000000" height="24.000000" transform="translate(8.000000 8.000000)" fill="#FFCCCC" fill-opacity="0"/>
	<path id="形状结合" d="M10.75 12.5L29.25 12.5C29.6642 12.5 30 12.8358 30 13.25L30 13.3018C30 13.7159 29.6642 14.0518 29.25 14.0518L10.75 14.0518C10.3358 14.0518 10 13.7159 10 13.3018L10 13.25C10 12.8358 10.3358 12.5 10.75 12.5ZM22.25 19.2241L10.75 19.2241C10.3358 19.2241 10 19.5599 10 19.9741L10 20.0259C10 20.4401 10.3358 20.7759 10.75 20.7759L22.25 20.7759C22.6642 20.7759 23 20.4401 23 20.0259L23 19.9741C23 19.5599 22.6642 19.2241 22.25 19.2241ZM10.75 25.9482L29.25 25.9482C29.6642 25.9482 30 26.2841 30 26.6982L30 26.75C30 27.1642 29.6642 27.5 29.25 27.5L10.75 27.5C10.3358 27.5 10 27.1642 10 26.75L10 26.6982C10 26.2841 10.3358 25.9482 10.75 25.9482Z" clip-rule="evenodd" fill="#000000" fill-opacity="0.901961" fill-rule="evenodd"/>
	<path id="路径" d="M28.1 17.58L25.92 19.76L28.1 21.93C28.73 22.56 29.81 22.12 29.81 21.23L29.81 18.29C29.81 17.4 28.73 16.95 28.1 17.58Z" fill="#000000" fill-opacity="1.000000" fill-rule="evenodd"/>
</svg>
