<svg width="24.000000" height="24.000000" viewBox="0 0 24 24" fill="none" xmlns="http://www.w3.org/2000/svg" xmlns:xlink="http://www.w3.org/1999/xlink">
	<desc>
			Created with Pixso.
	</desc>
	<defs>
		<clipPath id="clip6_852">
			<rect id="svg" width="24.000000" height="24.000000" fill="white" fill-opacity="0"/>
		</clipPath>
	</defs>
	<g clip-path="url(#clip6_852)">
		<path id="path-1" d="M13.13 1.63C13.48 1.8 13.76 2.08 13.93 2.42L15.95 6.52C16.09 6.81 16.37 7.01 16.7 7.06L21.21 7.72C22.17 7.86 22.83 8.74 22.69 9.7C22.64 10.08 22.46 10.43 22.18 10.7L18.92 13.89C18.68 14.12 18.57 14.45 18.63 14.77L19.4 19.27C19.56 20.22 18.92 21.12 17.97 21.29C17.59 21.35 17.2 21.29 16.86 21.11L13.77 19.49C14.25 19.18 14.72 18.86 15.18 18.53L17.56 19.78C17.61 19.81 17.66 19.82 17.72 19.81C17.84 19.79 17.93 19.67 17.93 19.55L17.18 15.18C16.59 15.65 16.01 16.09 15.43 16.51L14.55 17.14L13.68 17.75C13.08 18.15 12.46 18.55 11.84 18.94L10.9 19.51L7.86 21.11C7.63 21.23 7.39 21.3 7.15 21.31L7.01 21.31C6.39 21.3 5.8 20.96 5.49 20.38C5.31 20.04 5.25 19.65 5.32 19.27L6.09 14.77C6.14 14.45 6.04 14.12 5.8 13.89L2.53 10.7C1.84 10.03 1.83 8.92 2.5 8.23C2.77 7.95 3.12 7.77 3.5 7.72L8.02 7.06C8.34 7.01 8.63 6.81 8.77 6.52L10.79 2.42C11.22 1.56 12.27 1.2 13.13 1.63ZM12.31 2.95C12.3 2.96 12.22 2.99 12.21 3L12.31 2.95C12.3 2.96 12.22 2.99 12.21 3L10.12 7.18C10.01 7.39 9.88 7.58 9.73 7.74C9.71 7.77 9.65 7.83 9.63 7.85C9.61 7.87 9.53 7.95 9.5 7.97C9.48 7.98 9.38 8.06 9.36 8.08C9.34 8.1 9.24 8.17 9.22 8.18C9.19 8.2 9.07 8.27 9.05 8.28C9.02 8.29 8.92 8.34 8.89 8.36C8.86 8.37 8.83 8.38 8.79 8.4C8.76 8.41 8.66 8.45 8.63 8.46C8.6 8.46 8.48 8.5 8.45 8.5L8.35 8.53L8.23 8.55L3.72 9.2C3.67 9.21 3.62 9.24 3.58 9.28C3.57 9.29 3.52 9.38 3.51 9.39L3.58 9.28C3.57 9.3 3.52 9.37 3.51 9.39C3.51 9.42 3.51 9.51 3.52 9.53L3.51 9.39C3.52 9.42 3.51 9.51 3.52 9.53L6.85 12.81C7.02 12.99 7.17 13.18 7.29 13.39C7.31 13.42 7.36 13.52 7.37 13.56C7.39 13.59 7.43 13.69 7.44 13.73C7.46 13.76 7.49 13.85 7.5 13.89C7.51 13.92 7.52 13.96 7.53 14C7.54 14.03 7.56 14.13 7.56 14.16C7.57 14.19 7.57 14.23 7.58 14.27C7.59 14.31 7.59 14.39 7.6 14.44C7.6 14.48 7.6 14.57 7.6 14.61C7.6 14.64 7.6 14.77 7.59 14.8C7.59 14.82 7.58 14.92 7.58 14.94L6.8 19.52C6.79 19.58 6.79 19.63 6.82 19.68C6.84 19.69 6.91 19.78 6.93 19.79L6.82 19.68C6.84 19.69 6.91 19.78 6.93 19.79C6.97 19.8 7.04 19.82 7.08 19.81L7.45 19.63L10.16 18.2L11.04 17.67C12.24 16.92 13.41 16.13 14.54 15.3C15.76 14.41 17.01 13.42 18.25 12.37L18.87 11.84L21.14 9.63C21.18 9.59 21.2 9.54 21.21 9.49C21.21 9.47 21.2 9.37 21.19 9.36L21.21 9.49C21.2 9.46 21.21 9.38 21.19 9.36C21.18 9.34 21.11 9.25 21.1 9.24L21.19 9.36C21.18 9.34 21.12 9.25 21.1 9.24L16.48 8.55C16.38 8.53 16.28 8.51 16.18 8.48C16.15 8.47 16.07 8.45 16.05 8.44C16.01 8.43 15.98 8.42 15.94 8.4C15.91 8.39 15.81 8.35 15.78 8.33C15.76 8.32 15.64 8.27 15.62 8.25C15.6 8.24 15.49 8.17 15.47 8.16C15.44 8.14 15.34 8.07 15.31 8.05C15.29 8.03 15.19 7.95 15.16 7.92C15.14 7.9 15.06 7.83 15.04 7.8C15.01 7.77 14.94 7.69 14.91 7.66C14.88 7.62 14.82 7.54 14.79 7.51C14.77 7.47 14.72 7.4 14.7 7.36C14.69 7.34 14.65 7.26 14.64 7.25L12.58 3.09C12.56 3.04 12.52 3 12.47 2.98L12.31 2.95Z" fill="#000000" fill-opacity="0.247126" fill-rule="nonzero"/>
		<path id="path-1" d="M13.93 2.42L15.95 6.52C16.09 6.81 16.37 7.01 16.7 7.06L21.21 7.72C22.17 7.86 22.83 8.74 22.69 9.7C22.64 10.08 22.46 10.43 22.18 10.7L18.92 13.89C18.68 14.12 18.57 14.45 18.63 14.77L19.4 19.27C19.56 20.22 18.92 21.12 17.97 21.29C17.59 21.35 17.2 21.29 16.86 21.11L13.77 19.49C14.25 19.18 14.72 18.86 15.18 18.53L17.56 19.78C17.61 19.81 17.66 19.82 17.72 19.81C17.84 19.79 17.93 19.67 17.93 19.55L17.18 15.18C16.59 15.65 16.01 16.09 15.43 16.51L14.55 17.14L13.68 17.75C13.08 18.15 12.46 18.55 11.84 18.94L10.9 19.51L7.86 21.11C7.63 21.23 7.39 21.3 7.15 21.31L7.01 21.31C6.39 21.3 5.8 20.96 5.49 20.38C5.31 20.04 5.25 19.65 5.32 19.27L6.09 14.77C6.14 14.45 6.04 14.12 5.8 13.89L2.53 10.7C1.84 10.03 1.83 8.92 2.5 8.23C2.77 7.95 3.12 7.77 3.5 7.72L8.02 7.06C8.34 7.01 8.63 6.81 8.77 6.52L10.79 2.42C11.22 1.56 12.27 1.2 13.13 1.63C13.48 1.8 13.76 2.08 13.93 2.42ZM12.31 2.95C12.3 2.96 12.22 2.99 12.21 3M12.21 3L12.31 2.95L12.47 2.98C12.52 3 12.56 3.04 12.58 3.09L14.64 7.25C14.65 7.26 14.69 7.34 14.7 7.36C14.72 7.4 14.77 7.47 14.79 7.51C14.82 7.54 14.88 7.62 14.91 7.66C14.94 7.69 15.01 7.77 15.04 7.8C15.06 7.83 15.14 7.9 15.16 7.92C15.19 7.95 15.29 8.03 15.31 8.05C15.34 8.07 15.44 8.14 15.47 8.16C15.49 8.17 15.6 8.24 15.62 8.25C15.64 8.27 15.76 8.32 15.78 8.33C15.81 8.35 15.91 8.39 15.94 8.4C15.98 8.42 16.01 8.43 16.05 8.44C16.07 8.45 16.15 8.47 16.18 8.48C16.28 8.51 16.38 8.53 16.48 8.55L21.1 9.24C21.12 9.25 21.18 9.34 21.19 9.36M12.31 2.95C12.3 2.96 12.22 2.99 12.21 3L10.12 7.18C10.01 7.39 9.88 7.58 9.73 7.74C9.71 7.77 9.65 7.83 9.63 7.85C9.61 7.87 9.53 7.95 9.5 7.97C9.48 7.98 9.38 8.06 9.36 8.08C9.34 8.1 9.24 8.17 9.22 8.18C9.19 8.2 9.07 8.27 9.05 8.28C9.02 8.29 8.92 8.34 8.89 8.36C8.86 8.37 8.83 8.38 8.79 8.4C8.76 8.41 8.66 8.45 8.63 8.46C8.6 8.46 8.48 8.5 8.45 8.5L8.35 8.53L8.23 8.55L3.72 9.2C3.67 9.21 3.62 9.24 3.58 9.28L3.51 9.39M3.58 9.28C3.57 9.29 3.52 9.38 3.51 9.39M3.58 9.28C3.57 9.3 3.52 9.37 3.51 9.39L3.52 9.53M3.51 9.39C3.51 9.42 3.51 9.51 3.52 9.53M3.51 9.39C3.52 9.42 3.51 9.51 3.52 9.53L6.85 12.81C7.02 12.99 7.17 13.18 7.29 13.39C7.31 13.42 7.36 13.52 7.37 13.56C7.39 13.59 7.43 13.69 7.44 13.73C7.46 13.76 7.49 13.85 7.5 13.89C7.51 13.92 7.52 13.96 7.53 14C7.54 14.03 7.56 14.13 7.56 14.16C7.57 14.19 7.57 14.23 7.58 14.27C7.59 14.31 7.59 14.39 7.6 14.44C7.6 14.48 7.6 14.57 7.6 14.61C7.6 14.64 7.6 14.77 7.59 14.8C7.59 14.82 7.58 14.92 7.58 14.94L6.8 19.52C6.79 19.58 6.79 19.63 6.82 19.68L6.93 19.79M6.82 19.68C6.84 19.69 6.91 19.78 6.93 19.79M6.82 19.68C6.84 19.69 6.91 19.78 6.93 19.79C6.97 19.8 7.04 19.82 7.08 19.81L7.45 19.63L10.16 18.2L11.04 17.67C12.24 16.92 13.41 16.13 14.54 15.3C15.76 14.41 17.01 13.42 18.25 12.37L18.87 11.84L21.14 9.63C21.18 9.59 21.2 9.54 21.21 9.49L21.19 9.36M21.21 9.49C21.21 9.47 21.2 9.37 21.19 9.36M21.21 9.49C21.2 9.46 21.21 9.38 21.19 9.36L21.1 9.24M21.19 9.36C21.18 9.34 21.11 9.25 21.1 9.24" stroke="#000000" stroke-opacity="0" stroke-width="1.000000"/>
	</g>
</svg>
